<svg xmlns="http://www.w3.org/2000/svg" viewBox="0 0 275.53 293.07"><defs><style>.cls-1{fill:#fff;}.cls-2{fill:#fff0a4;}.cls-3{fill:#010005;}.cls-4{fill:#f33f48;}.cls-5{fill:#6ec3e3;}.cls-6{fill:#c98452;}.cls-7{fill:#000100;}.cls-8{fill:#feffff;}.cls-9{fill:none;stroke:#000;stroke-linecap:round;stroke-linejoin:round;stroke-width:1.92px;}</style></defs><g><path d="M210.67,291.54a28.31,28.31,0,0,1-14.7-3.81,26.06,26.06,0,0,1-9.18-9.49,174.44,174.44,0,0,1-28.74,2.39,173.37,173.37,0,0,1-53.89-8.55c-.36.38-.72.75-1.1,1.09-4.8,4.41-11.2,6.73-18.51,6.73-7.58,0-16.23-2.47-24.36-7A77.7,77.7,0,0,1,21.7,219.46c-.65-3.57-1.13-7.78.28-12a14.4,14.4,0,0,1,7.72-8.58,15.82,15.82,0,0,1,2.56-4,17.67,17.67,0,0,1,9.1-5.29,56.32,56.32,0,0,1-.69-9.34c-2.8-6.08-4.37-16.9.49-24.08a11.28,11.28,0,0,1,.78-1,116.32,116.32,0,0,1,4.74-21.12,6.35,6.35,0,0,1,.67-1.39c.08-.12.16-.24.25-.35a5.57,5.57,0,0,1,.95-1,4.57,4.57,0,0,1,.49-.38A24.44,24.44,0,0,1,52,129.27C41.48,109.83,33.58,94.52,26.59,80.08a19.26,19.26,0,0,1-2.13-6.46A10.68,10.68,0,0,1,28.38,64a10.55,10.55,0,0,1,6.5-2,20.39,20.39,0,0,1,3.54.35l1.11.18c6.74-.17,14-.5,21-.81,6.81-.31,13.83-.63,20.53-.81a144.57,144.57,0,0,1,1.38-34.46c.38-2.41,1.29-8.06,6.21-11a11.3,11.3,0,0,1,5.83-1.53A20.62,20.62,0,0,1,101,15.17a186.56,186.56,0,0,1,20.15,8.15c2.86-3.15,5.75-6.14,8.65-8.94,2.63-2.54,6.75-5.91,12.18-5.91l.8,0c8.79.56,14.39,8.21,18.47,13.81.68.92,1.32,1.8,1.94,2.59,2.21,2.83,4.09,5.27,5.8,7.58a112.54,112.54,0,0,1,10.88,3.41,121,121,0,0,1,51.3-19.64,21.1,21.1,0,0,1,2.87-.22,10.63,10.63,0,0,1,6.79,2.18c4.39,3.49,4,9.18,3.79,11.32l-2.15,28a201,201,0,0,1,22.19-6.05c2.74-.57,5.48-1.08,8.15-1.49a21,21,0,0,1,3.3-.3,10.52,10.52,0,0,1,7.17,2.51c2.51,2.21,4.88,6.49,1.93,14.3-7.92,20.92-16.71,41.83-26.14,62.17a38.6,38.6,0,0,1,3,8.1,5.81,5.81,0,0,1,2.26-.45,5.92,5.92,0,0,1,5.84,4.79c4.16,10.12,5.22,22.16,3.25,36.76a112,112,0,0,1-7.73,27.74,16.44,16.44,0,0,1,3.23,2.27,16.14,16.14,0,0,1,4.71,7.64c5.84,3.32,8.52,10.15,8.51,15.75,0,6.51-2.94,12.26-5.49,16.53a95.67,95.67,0,0,1-49.13,40.42A50.77,50.77,0,0,1,210.67,291.54Z" class="cls-1" transform="translate(-16.07 -3.47)"/><path d="M142,13.47h.49c6.45.41,11,6.71,14.74,11.76.71,1,1.39,1.9,2,2.73,2.26,2.89,4.56,5.88,6.82,9h.2a109.77,109.77,0,0,1,14.35,4.57.72.72,0,0,1,.19-.2,116,116,0,0,1,51-20.12,16.55,16.55,0,0,1,2.2-.17,5.71,5.71,0,0,1,3.68,1.09c2.32,1.84,2,5.35,1.92,7l-2.74,35.64A213.53,213.53,0,0,1,265.7,56.4c2.65-.55,5.31-1,7.9-1.44a15.68,15.68,0,0,1,2.53-.24A5.61,5.61,0,0,1,280,56c2.9,2.56,1.13,7.24.55,8.78-8.18,21.62-17.3,43.22-27.09,64.18a33.15,33.15,0,0,1,4.38,11.79,7,7,0,0,1,3.37,2.31l2.66-1.56a.94.94,0,0,1,.48-.13,1,1,0,0,1,.83.48.85.85,0,0,1,.11.56c4,9.41,5.09,20.81,3.2,34.84-1.51,11.17-4.73,20.37-9.42,31.36a13.19,13.19,0,0,1,6.52,3,11.8,11.8,0,0,1,3.69,7.45c5.19,1.64,7.89,7.37,7.88,12.22,0,5.29-2.56,10.25-4.79,14a90.54,90.54,0,0,1-46.51,38.27,45.6,45.6,0,0,1-15.19,3,23.26,23.26,0,0,1-12.14-3.11,21.91,21.91,0,0,1-8.9-10.78,169,169,0,0,1-87.26-6.45,15.57,15.57,0,0,1-2.69,3.29c-4.21,3.87-9.53,5.41-15.13,5.41h0c-7.44,0-15.39-2.72-21.95-6.34a72.74,72.74,0,0,1-36-50c-.54-2.93-.95-6.36.1-9.51.92-2.75,3.4-5.68,6.81-6A11.38,11.38,0,0,1,36,198.25c3.12-3.52,7.92-4.31,11.34-4.37a52.07,52.07,0,0,1-1.65-14.66s0,0,0-.06-.09-.15-.12-.22c-2.53-4.79-4-14.38-.28-19.92a8.57,8.57,0,0,1,1.39-1.59,112.41,112.41,0,0,1,4.75-21.83.88.88,0,0,1,.1-.22l0,0a1,1,0,0,1,.23-.23l0,0A12.46,12.46,0,0,1,58,132.71c.18-.58.36-1.16.52-1.73C47,109.65,38.53,93.27,31.09,77.9a14.51,14.51,0,0,1-1.65-4.8A5.61,5.61,0,0,1,31.39,68a5.59,5.59,0,0,1,3.49-1,16.27,16.27,0,0,1,2.71.28l1.58.26c6.89-.16,14.36-.5,21.59-.83S75.66,66,82.7,65.8a4.33,4.33,0,0,0,2.77-.65c.84-.76.79-2.31.66-3.71a139.94,139.94,0,0,1,1.25-34.27c.46-2.84,1.27-5.94,3.82-7.44a6.31,6.31,0,0,1,3.29-.84,15.94,15.94,0,0,1,4.93,1,180.88,180.88,0,0,1,22.89,9.54.18.18,0,0,1,.07,0c3.52-4,7.15-7.88,10.91-11.51,2.2-2.12,5.16-4.51,8.71-4.51m0-10h0c-8.08,0-13.78,5.51-15.66,7.32-2.12,2.05-4.26,4.21-6.37,6.47-5.67-2.56-11.48-4.85-17.35-6.83a25.34,25.34,0,0,0-8.13-1.54,16.31,16.31,0,0,0-8.36,2.22C79.18,15.2,77.92,23,77.51,25.59A150.37,150.37,0,0,0,75.76,56c-5.11.18-10.34.41-15.45.64-6.83.31-13.88.63-20.42.8l-.64-.1a25.57,25.57,0,0,0-4.37-.42,15.43,15.43,0,0,0-9.51,3,15.67,15.67,0,0,0-5.88,14.18,23.78,23.78,0,0,0,2.6,8.12c6.52,13.46,13.81,27.67,23.23,45.24a11.08,11.08,0,0,0-1.73,1.82,7.75,7.75,0,0,0-.46.66,11.38,11.38,0,0,0-1.2,2.51,119.52,119.52,0,0,0-4.76,20.7l-.15.22c-5.94,8.76-4.22,20.81-1.35,27.89,0,1.64.09,3.29.23,4.93a21.75,21.75,0,0,0-7.37,5.37A20.91,20.91,0,0,0,26,195.11a19.19,19.19,0,0,0-8.78,10.77c-1.78,5.32-1.18,10.54-.45,14.48a82.72,82.72,0,0,0,41,56.95c8.86,4.9,18.37,7.59,26.78,7.59a31.89,31.89,0,0,0,20.89-7.17,178.91,178.91,0,0,0,78.92,5.95,30.44,30.44,0,0,0,9,8.34,33.16,33.16,0,0,0,17.27,4.52A55.8,55.8,0,0,0,229.23,293,100.77,100.77,0,0,0,281,250.39c2.88-4.82,6.18-11.35,6.2-19.08,0-6.55-2.93-14.44-9.33-19a20.92,20.92,0,0,0-5.54-8.1l-.48-.43a112,112,0,0,0,6.59-25.2c2.06-15.3.94-28-3.42-38.92a10.76,10.76,0,0,0-1.17-2.88,11,11,0,0,0-8.13-5.34c-.33-.94-.69-1.86-1.08-2.75,9.11-19.78,17.61-40.07,25.31-60.38,4.17-11-.28-17.16-3.3-19.82a15.47,15.47,0,0,0-10.48-3.76,25.41,25.41,0,0,0-4.08.36c-2.74.43-5.57.94-8.39,1.53-5,1-10.22,2.37-15.62,4l1.59-20.67c.2-2.6.8-10.49-5.67-15.63a15.48,15.48,0,0,0-9.9-3.26,26.25,26.25,0,0,0-3.55.26,126,126,0,0,0-51.29,19c-2.42-.84-4.84-1.58-7.25-2.25-1.45-1.93-3-4-4.83-6.28-.54-.69-1.16-1.54-1.82-2.44-4.42-6-11.07-15.16-22.2-15.86l-1.12,0Z" class="cls-1" transform="translate(-16.07 -3.47)"/><polygon points="84.92 261.11 92.6 263.82 99.03 265.65 111.52 268.43 121.19 269.91 133.02 270.48 144.05 271.2 157.88 271.2 171.95 268.53 178.3 266.48 229.3 222.69 241.98 205.09 246.81 193.81 251 176.67 252.38 160.41 252.38 151.28 248.19 138.98 245.09 140.72 242.91 138.86 239.65 137.15 164.95 132.99 106.7 122.03 61.51 130.2 51.06 130.2 41.87 130.2 37.22 131.33 35.86 133.73 32.87 145.67 30.54 157.96 30.54 179.73 32.42 191.08 46.7 221.92 84.92 261.11" class="cls-1"/><path d="M189.72,270l-1.37-9.26,3.57-11.84,6.7-11.2,8.76-9.39,10.52-7.89L230.67,214l9.33-2.91,16.18-1.93,5.11,1,4.68,3.25,2.48,5.66v1.31L271,221l2.66,1.78,2.13,5.39.39,4.11-.64,3.69-1.88,3.63-5.26,10.1-7.18,9-7.57,7.41s-15,10.56-15.18,10.66-13.58,6.11-13.58,6.11l-7.6,2.05-6.71.66-6.83-.91-7.52-4.08-3.6-4.2-2-3.74Z" class="cls-2" transform="translate(-16.07 -3.47)"/><path d="M101.7,265.46l2.7-7.82.29-8.46-1.17-6.27L97.89,230l-3.59-5-11-14-5-3.43-11.3-7.26L50.79,195l-10.74,1.38-3.9,3.19-1.69,3.61s-.44.74-.61.75-2.49.76-2.49.76l-2.6,2.4-2.05,3.24-.25,4.5,2.18,8.41,3.44,11.13,8.14,13.09,5.31,5.63L56.9,263.89l5.88,4.37,12.29,4.35,8.28,1.31,6.74-.55,6.27-2.53,3.18-2.54Z" class="cls-2" transform="translate(-16.07 -3.47)"/><polygon points="213.62 164.09 218.54 161.22 224.37 158.45 228.43 158.45 231.15 158.72 235.44 160.41 237.71 162.36 240.18 166.66 240.49 172.15 240.11 176.16 239.63 178.93 234.67 184.44 230.36 188.49 224.16 191.03 210.49 195.53 203.21 196.9 199.11 197.03 196.34 196.62 194.98 194.69 193.91 192.62 194.31 190.06 194.98 186.49 201.76 173.44 209.82 166.23 213.62 164.09" class="cls-2"/><polygon points="36.27 132.45 40.23 136.66 41.4 139.49 42.12 141.47 46.04 142.25 51.5 142.25 58.99 139.82 63.09 138.03 66.48 138.03 68.48 139.07 72.14 143.43 73.98 146.16 75.78 147.78 78.31 150.02 80.44 150.78 82.46 150.88 84.4 150.41 86.39 149.33 88 147.74 94.2 140.45 96.48 138.19 98.66 136.73 101.84 135.4 105.04 135.82 107.22 136.88 109.68 138.03 111.48 138.99 113.23 138.6 114.38 137.35 115.59 136.94 118.34 137.09 121.95 138.29 124.56 138.84 128.45 138.03 131.97 136.72 133.25 135.61 136.25 136.85 144.95 141.67 153.5 148.79 157.59 152.66 159.41 153.78 161.71 154.15 163.68 153.08 165.99 151.73 173.5 147.58 184.17 140.61 195.22 145.38 205.12 151.73 210.78 154.92 213.64 154.92 216.71 153.61 220.92 151.06 234.22 140.72 237.8 138.58 239.92 137.67 240.95 137.71 240.95 136.38 237.33 127.28 236.28 125.58 241.19 114.91 250.75 93.04 260.2 69.74 264.58 57.45 264.01 54.13 261.95 51.92 259.21 52.27 242.76 55.52 219.53 62.82 219.95 57.45 222.08 32.67 222.7 21.83 221.37 19.69 219.15 18.61 216.31 18.52 192.02 24.64 174.74 32.16 165.31 39.02 157.5 36.54 149.05 33.79 140.62 22.69 136.25 17.05 129.05 11.56 125.63 10.98 122.39 11.85 118.94 13.82 111.44 21.32 106.25 26.85 103.54 25.73 88.56 19.73 79.73 16.4 76.16 16.83 73.56 18.53 72.31 21.66 71.46 32.03 70.64 50.59 71.11 58.39 71.11 60.06 69.69 62.25 66.82 63.31 49.18 63.95 24.6 65.25 18.87 64.22 15.88 65.26 14.52 67.28 14.28 69.02 14.46 70.45 18.14 78.57 29.8 101.46 42.38 125.16 43.56 127.34 42.83 129.14 41.07 132.74 40.64 135.14 39.7 135.27 38.37 133.77 36.27 132.45" class="cls-2"/><path d="M160.19,107.33a38,38,0,0,0-.69-5.51,10.41,10.41,0,0,1-3-.66,9,9,0,0,1-1.41-.74,10.28,10.28,0,0,1-1.75-.89,33.34,33.34,0,0,0-.47,8.19c.36,6.84,2.29,12.29,4.3,12.18S160.55,114.17,160.19,107.33Z" class="cls-3" transform="translate(-16.07 -3.47)"/><polygon points="198.62 147.78 188.98 153.4 175.57 161 172.85 165.03 171.54 167.76 170.34 173.71 171.57 183.95 174.33 192.24 176.01 193.68 178.44 193.81 194.07 191.8 195.69 186.34 197.98 180.47 205.47 171.34 213.62 164.09 214.62 161.84 215.1 156.09 214.62 154.3 212.66 154.55 208.71 153.79 205.47 151.17 199.57 147.78 198.62 147.78" class="cls-4"/><path d="M116.09,196.74l.17.49L122.73,216l5.57,10.72s6.52,9.65,6.77,10,3.36,3.78,3.36,3.78l2.41,1.89,2.44,1.21,2.2.48,2.12-.47,5.69-2,10.38-7.19,7.77-8.54,6.94-9.33L181.7,210l-.13-5.22-3.46-4.17-16.89-5.19L134.16,189l-9.35.08-3.89.41-2,.58-1.1.88-1.35,2.17Z" class="cls-5" transform="translate(-16.07 -3.47)"/><polygon points="199.23 256.07 221.58 264.26 221.57 265.49 221.33 266.48 213.49 272.3 205.22 275.48 200.2 276.06 197.11 275.48 194.95 274.21 193.53 272.5 192.65 270.35 192.35 268.06 192.5 266.07 195.15 260 197.57 256.76 199.23 256.07" class="cls-6"/><path d="M58.6,254.43c.2-.15,18.44-5.79,18.44-5.79l3.9-.84,1.49.52.95,1,1.37,4.14.84,8L85,264.63l-1.71,2.86L81.88,267l-3.46.23-4.2-1-6.81-2.09-8.11-4.34-1.62-2.11v-1.73Z" class="cls-6" transform="translate(-16.07 -3.47)"/><path d="M129.6,200.59l3-1.2,3.28-.08s11.2.63,11.51.63,18.9,5.57,18.9,5.57l1.75.94,1.13,1.36L169,210l.44,2-1.78,3.38-3.49,4.28-10.36,10.91-2.28,1.51-2.52.6-2.85-.46-2.07-1-1.68-.63-1-1.74-1.14-1.41-1.14-1.63-9.49-19-1.29-3.41v-1.68Z" class="cls-1" transform="translate(-16.07 -3.47)"/><polygon points="179.06 238.81 169.98 244.37 164.84 249.14 164.84 252.31 165.84 256.07 168.99 260.65 172.95 263.44 172.78 254.48 174.9 247.28 178.53 239.96 179.06 238.81" class="cls-5"/><path d="M223.94,157.26l-1.42,11-1.45,6.13-1.62,3.22-6.36,6.37-7.45,3.44a33.53,33.53,0,0,1-3.87,0,7.64,7.64,0,0,1-1-1.41l-.79-1.5.05-1.72.74-2.84,1-3.24,3.74-6.17,11.07-10.15,5.47-3.78Z" class="cls-1" transform="translate(-16.07 -3.47)"/><path d="M96,226c-.13-.45-1.19-8.48-1.19-8.48l-2-5.52-2.24-2.66H83.88l-1.48.92.91.8,5.88,6.13,4.73,6.7Z" class="cls-4" transform="translate(-16.07 -3.47)"/><polygon points="73.14 163.39 75.98 163.39 78.74 164.08 81.67 165.02 82.53 165.76 83 166.74 82.93 168.41 81.07 171.02 79.17 172.3 77 172.62 75.15 172.24 74.61 170.97 73.45 168.84 73.14 167.45 72.36 164.7 73.14 163.39" class="cls-4"/><ellipse cx="119.7" cy="124.74" class="cls-7" rx="1.95" ry="1.47"/><path d="M157.92,101.58a7.56,7.56,0,0,1-1.38-.42,9.1,9.1,0,0,1-1.42-.74c-.43-.18-.86-.38-1.27-.6a15.53,15.53,0,0,0-.33,3.21c0,3.43,1,6.21,2.23,6.21S158,106.46,158,103C158,102.53,158,102.05,157.92,101.58Z" class="cls-8" transform="translate(-16.07 -3.47)"/><path d="M118.82,101.7a50.76,50.76,0,0,0-.56,5.69c-.29,6.84.72,12.44,2.25,12.5s3-5.42,3.32-12.26a45.26,45.26,0,0,0-.27-7.62A13.36,13.36,0,0,1,118.82,101.7Z" class="cls-3" transform="translate(-16.07 -3.47)"/><path d="M120,101.5a17.49,17.49,0,0,0-.31,2.67c-.15,3.42.62,6.24,1.71,6.29s2.1-2.7,2.25-6.12a15.65,15.65,0,0,0-.34-4.21A16.64,16.64,0,0,1,120,101.5Z" class="cls-8" transform="translate(-16.07 -3.47)"/><polygon points="30.99 154.92 32.93 153.54 35.19 152.85 37.63 152.73 41.14 153.63 45.02 155.85 51.75 162.66 57.59 169.45 62.88 179.07 64.16 182.71 64.16 187.13 63.14 189.17 60.46 190.29 56.32 190.29 50.26 188.96 39.94 184.86 33.91 180.02 29.44 172.99 27.93 168.51 27.93 165.16 27.93 162.24 28.43 159.83 29.81 156.43 30.99 154.92" class="cls-2"/><path d="M47.59,157.9a112.33,112.33,0,0,1,4.75-22,19.28,19.28,0,0,1,5.85,9c4.89,1.42,10.85,1.3,15.44-.91,2.63-1.27,5.3-3.16,8.19-2.7,3.57.57,5.52,4.31,7.53,7.32s5,5.8,8.62,5.73,6.45-2.91,8.63-5.74c2-2.58,3.81-5.36,6.4-7.34s6.19-3,9.13-1.63c1.21.58,2.2,1.51,3.37,2.15a3.84,3.84,0,0,0,3.81.25c.76-1.65,2.66-1.91,4.45-1.64s3.43,1.16,5.19,1.6a11,11,0,0,0,10.65-3.25c7.71,4.3,15.87,9.2,22.08,15.48,1.32,1.34,2.7,2.77,4.52,3.22,2.62.64,5.22-.94,7.46-2.44L200,144c7.68,2.81,15.16,6.33,21.63,11.33,2,1.51,4.06,3.2,6.54,3.24a10.46,10.46,0,0,0,5.21-1.85,112,112,0,0,0,16.8-12c1.83-1.59,3.9-3.34,6.32-3.2a6.15,6.15,0,0,1,4.7,3.24,18,18,0,0,1,1.81,5.63,20.5,20.5,0,0,0,1.23-7.91c4.76,10.84,4.85,22.95,3.27,34.68s-5.07,21.18-9.74,32.06" class="cls-9" transform="translate(-16.07 -3.47)"/><path d="M211.91,189.48a14.58,14.58,0,0,0-1.51,4.88,6,6,0,0,0,1.56,4.72c1.85,1.78,4.78,1.65,7.32,1.29a82.83,82.83,0,0,0,18.82-5,40,40,0,0,0,12.09-7,19.77,19.77,0,0,0,6.73-12c.56-4.65-1.24-9.69-5.08-12.36a13.67,13.67,0,0,0-9.76-2c-6.82,1-13.08,5.89-18,10.5A55.12,55.12,0,0,0,211.91,189.48Z" class="cls-9" transform="translate(-16.07 -3.47)"/><path d="M62.59,160.46a50.42,50.42,0,0,1,17.28,27c.39,1.58.66,3.41-.3,4.73-1.16,1.57-3.46,1.63-5.41,1.45a44.83,44.83,0,0,1-15.87-4.12,26.49,26.49,0,0,1-11.87-11.06c-3.73-7-4.47-23.53,7.66-22.24C57.28,156.61,60.13,158.49,62.59,160.46Z" class="cls-9" transform="translate(-16.07 -3.47)"/><path d="M261.17,144.19l3.18-1.86" class="cls-9" transform="translate(-16.07 -3.47)"/><path d="M222.12,156.54c-4.78,3.23-9.59,6.49-13.63,10.6s-7.31,9.19-8.32,14.87a8.06,8.06,0,0,0-.11,2.81,3.63,3.63,0,0,0,1.42,2.37c1.19.79,2.78.56,4.16.18A25.59,25.59,0,0,0,216,181.62" class="cls-9" transform="translate(-16.07 -3.47)"/><path d="M223.94,157.26a51.29,51.29,0,0,1-4.78,20.59" class="cls-9" transform="translate(-16.07 -3.47)"/><path d="M230.2,166.93a16.66,16.66,0,0,0,.72-8.54" class="cls-9" transform="translate(-16.07 -3.47)"/><path d="M215.18,151.05l-16.38,9.34c-3.4,1.93-6.89,4-9.2,7.1a18.82,18.82,0,0,0-3.17,11.78,56,56,0,0,0,2.24,12.2c.58,2.21,1.36,4.68,3.41,5.68,1.46.71,3.17.47,4.77.22l13.3-2.11" class="cls-9" transform="translate(-16.07 -3.47)"/><path d="M130.38,200a9.63,9.63,0,0,1,5-.68,109.9,109.9,0,0,1,29.92,5.83,7.52,7.52,0,0,1,3.12,1.68,5.27,5.27,0,0,1,1,5.11,14.14,14.14,0,0,1-2.77,4.67c-3.36,4.19-7.1,8.06-10.82,11.93-1.52,1.58-3.15,3.23-5.25,3.84a8.31,8.31,0,0,1-7.06-1.62,20.86,20.86,0,0,1-4.85-5.67c-4.23-6.57-6.95-13.66-10.12-20.71A3.55,3.55,0,0,1,130.38,200Z" class="cls-9" transform="translate(-16.07 -3.47)"/><path d="M116.11,194.9a16.17,16.17,0,0,0,1.49,6.69c4.73,12.51,9.59,25.26,18,35.69,2.51,3.13,5.65,6.19,9.62,6.71,4.12.54,8-1.78,11.38-4.24a88.59,88.59,0,0,0,22.76-24.69c1.92-3.11,3.69-6.93,2.26-10.3-1.33-3.1-4.84-4.54-8-5.61a242.14,242.14,0,0,0-39.83-9.65,40.7,40.7,0,0,0-12-.13,5.86,5.86,0,0,0-3.18,1A6.24,6.24,0,0,0,116.11,194.9Z" class="cls-9" transform="translate(-16.07 -3.47)"/><path d="M208.87,268.23c-1,3.28-.44,7.23,2.16,9.45s6.78,2.13,10.26,1.27a36.26,36.26,0,0,0,15.2-8,2.59,2.59,0,0,0,1.16-2c-.11-.93-1.13-1.44-2-1.78l-17.31-6.71c-2.76-1.07-3.76-1.67-5.63.82A29,29,0,0,0,208.87,268.23Z" class="cls-9" transform="translate(-16.07 -3.47)"/><path d="M256.91,239.93c4-3.68,8-7.53,10.2-12.5S269,216,264.94,212.35c-3.45-3.12-8.57-3.4-13.21-3.07a74.9,74.9,0,0,0-53.24,28.54c-5.17,6.69-9.25,14.56-9.79,23s3.06,17.47,10.32,21.81c7.84,4.69,17.9,3.11,26.51,0a89,89,0,0,0,46-37.86c2.47-4.14,4.65-8.68,4.66-13.49s-2.7-9.93-7.31-11.34" class="cls-9" transform="translate(-16.07 -3.47)"/><path d="M43.47,224c-3.24-3.52-6.54-7.15-8.29-11.59s-1.65-10,1.53-13.54c3-3.36,7.92-4.26,12.41-4,6.74.37,13.22,2.84,19.15,6.08a77.3,77.3,0,0,1,31.84,33.15,41.46,41.46,0,0,1,4.73,17.72c.07,5.83-1.35,12.86-5.82,17-9.79,9-25.75,4.57-36-1.07a72.07,72.07,0,0,1-35.5-49.34c-.55-3-.9-6.15.06-9s3.57-5.43,6.62-5.42" class="cls-9" transform="translate(-16.07 -3.47)"/><path d="M78.22,248.28A5.52,5.52,0,0,1,81.9,248c1.49.61,2.13,2.35,2.51,3.92a42.1,42.1,0,0,1,1.17,8.36c.11,3-.6,6.81-4.2,7.15a10.24,10.24,0,0,1-3.21-.34c-3.74-.82-23.6-5.28-20.08-12.08.8-1.54,4-1.86,5.51-2.31Z" class="cls-9" transform="translate(-16.07 -3.47)"/><path d="M81.88,210.37A20,20,0,0,1,87,209.3a6.81,6.81,0,0,1,4.86,1.55,9.43,9.43,0,0,1,2.33,4.48A69.71,69.71,0,0,1,96.5,226.7" class="cls-9" transform="translate(-16.07 -3.47)"/><path d="M102.38,265.22A168.9,168.9,0,0,0,190,271.64" class="cls-9" transform="translate(-16.07 -3.47)"/><path d="M195.79,241.59c-3.49,2.3-6.6,4.61-10.09,6.91a12.17,12.17,0,0,0-3.86,3.44c-1.52,2.47-1,5.77.44,8.26s3.79,4.36,6.06,6.17" class="cls-9" transform="translate(-16.07 -3.47)"/><path d="M52.34,135.92a11.26,11.26,0,0,1,6.11-2.25" class="cls-9" transform="translate(-16.07 -3.47)"/><path d="M46.64,179.27a51.18,51.18,0,0,0,1.85,15.28" class="cls-9" transform="translate(-16.07 -3.47)"/><path d="M157.15,124.44a17,17,0,0,0,7.08.44,9.56,9.56,0,0,0,6-3.48c2.3-3.05,2.06-7.25,1.71-11.06" class="cls-9" transform="translate(-16.07 -3.47)"/><path d="M107.77,111.87c-.24,3.41-.43,7.1,1.43,10a7.94,7.94,0,0,0,11.24,2.23" class="cls-9" transform="translate(-16.07 -3.47)"/><path d="M146.62,93.82a17.94,17.94,0,0,0,16.72,8.39" class="cls-9" transform="translate(-16.07 -3.47)"/><path d="M115.57,103a24.6,24.6,0,0,0,8.28-2.58,10.91,10.91,0,0,0,5.38-6.56" class="cls-9" transform="translate(-16.07 -3.47)"/><path d="M56.3,140.13a68.67,68.67,0,0,0,3.28-9.25c-9.48-17.49-19-35.47-27.64-53.38A14,14,0,0,1,30.38,73,4.73,4.73,0,0,1,32,68.73c1.5-1.13,3.6-.87,5.46-.56l25.77,4.35c9.53,1.61,19.1,3.23,28.28,6.27,10.4-22.08,24.89-43.12,42.48-60.1,2.28-2.2,5.12-4.44,8.47-4.23,7.2.45,12.13,9.07,16.09,14.13a199,199,0,0,1,15.93,22.74,231,231,0,0,1,14,29.31,5.58,5.58,0,0,0,1.88,2.81c3.57,2.23,9.73-2.23,12.92-3.62,2.92-1.27,5.81-2.61,8.73-3.89,5.83-2.56,11.69-5,17.62-7.37a226.84,226.84,0,0,1,36.28-11.21q3.92-.81,7.86-1.44c1.93-.3,4.14-.49,5.61.8,2.06,1.82,1.26,5.15.29,7.72q-12.42,32.81-27.29,64.61A32.37,32.37,0,0,1,257,141.5" class="cls-9" transform="translate(-16.07 -3.47)"/><path d="M166.06,37.9a110.15,110.15,0,0,1,56,33.57" class="cls-9" transform="translate(-16.07 -3.47)"/><path d="M85.76,77.09A42.43,42.43,0,0,1,101,60.86" class="cls-9" transform="translate(-16.07 -3.47)"/><path d="M39.1,68.46c13.88-.34,29.59-1.34,43.61-1.68a5.18,5.18,0,0,0,3.39-.89c1.19-1.07,1.12-2.92,1-4.51a139.45,139.45,0,0,1,1.24-34c.42-2.58,1.11-5.45,3.36-6.77s5-.57,7.43.25a181.89,181.89,0,0,1,22.77,9.48" class="cls-9" transform="translate(-16.07 -3.47)"/><path d="M181.38,42.11A115.07,115.07,0,0,1,232,22.16c1.76-.24,3.75-.38,5.15.73,1.74,1.38,1.73,4,1.56,6.2l-2.81,36.59" class="cls-9" transform="translate(-16.07 -3.47)"/><path d="M95.31,167.67c1.34.28,2.83.68,3.51,1.87a3.15,3.15,0,0,1,0,2.73,6.62,6.62,0,0,1-1.72,2.22A5.39,5.39,0,0,1,94,176.08c-3.55.2-4.71-4.11-5.41-6.78C87.44,164.94,92.87,167.14,95.31,167.67Z" class="cls-9" transform="translate(-16.07 -3.47)"/></g></svg>